<svg width="128" height="128" viewBox="0 0 128 128" fill="none" xmlns="http://www.w3.org/2000/svg">
<mask id="mask0_1_9" style="mask-type:alpha" maskUnits="userSpaceOnUse" x="0" y="0" width="128" height="128">
<rect width="128" height="128" rx="64" fill="black"/>
</mask>
<g mask="url(#mask0_1_9)">
<rect width="128" height="128" rx="64" fill="#7777B4"/>
<path fill-rule="evenodd" clip-rule="evenodd" d="M47.5 135C42.2533 135 38 130.747 38 125.5V115.025C38 113.509 38.1797 111.975 38.5183 110.498C42.0491 95.0949 37.1939 112.744 19 112.744V112.744C8.50659 112.744 0 104.238 0 93.7444V83.8722V74C0 63.5066 8.50659 55 19 55V55H38V55C48.4934 55 57 63.5066 57 74V125.5C57 130.747 52.7467 135 47.5 135V135ZM28.5 74.2481C23.2533 74.2481 19 78.5014 19 83.7481V83.9962C19 89.2429 23.2533 93.4962 28.5 93.4962V93.4962C33.7467 93.4962 38 89.2429 38 83.9962V83.7481C38 78.5014 33.7467 74.2481 28.5 74.2481V74.2481Z" fill="url(#paint0_linear_1_9)"/>
<path d="M78.1448 79.6804L64.4949 83.079C48.7751 86.9929 24.4093 75.431 18.9816 60.1676C15.2599 49.7019 13.1522 36.9431 17.1883 21.6591C20.9179 7.53542 34.4887 -0.943666 48.8811 -3.44339L106.871 -13.5153C114.341 -14.8128 121.177 -9.06224 121.177 -1.4801C121.177 4.09852 117.398 8.96838 111.993 10.353L59.6658 23.7608C54.5232 25.0785 50.9266 29.7127 50.9266 35.0215C50.9266 42.6121 58.0833 48.1663 65.4364 46.2822L86.0517 41C103.852 36.4391 121.177 49.8845 121.177 68.2598V97.2499C121.177 123.483 99.9104 144.75 73.6768 144.75H39.9988C32.3651 144.75 26.1767 138.562 26.1767 130.928C26.1767 124.875 30.1154 119.526 35.8957 117.729L84.5554 102.602C89.5343 101.055 92.9269 96.4473 92.9269 91.2334C92.9269 83.4926 85.6562 77.8102 78.1448 79.6804Z" fill="url(#paint1_linear_1_9)"/>
<path d="M46 107.978V59.4752C46 53.1376 51.1376 48 57.4752 48C63.8128 48 68.9504 53.1376 68.9504 59.4752V99.9421C68.9504 102.735 71.2149 105 74.0084 105C76.8018 105 79.0663 102.735 79.0663 99.9421V80.4337C79.0663 73.5668 84.633 68 91.5 68C98.367 68 103.934 73.5668 103.934 80.4337V99.9421C103.934 102.735 106.198 105 108.992 105C111.785 105 114.05 102.735 114.05 99.9421V59.4752C114.05 53.1376 119.187 48 125.525 48C131.862 48 137 53.1376 137 59.4752V107.978C137 118.484 128.484 127 117.978 127H109.957C103.881 127 98.9565 122.075 98.9565 116V112.457C98.9565 108.338 95.6181 105 91.5 105C87.3819 105 84.0435 108.338 84.0435 112.457V116C84.0435 122.075 79.1186 127 73.0435 127H65.0217C54.5163 127 46 118.484 46 107.978Z" fill="url(#paint2_linear_1_9)"/>
</g>
<mask id="mask1_1_9" style="mask-type:alpha" maskUnits="userSpaceOnUse" x="39" y="46" width="38" height="44">
<rect x="39" y="46" width="38" height="44" rx="19" fill="#D9D9D9"/>
</mask>
<g mask="url(#mask1_1_9)">
<path d="M78.1448 79.6804L64.4949 83.079C48.7751 86.9929 24.4093 75.431 18.9816 60.1676C15.2599 49.7019 13.1522 36.9431 17.1883 21.6591C20.9179 7.53542 34.4887 -0.943666 48.8811 -3.44339L106.871 -13.5153C114.341 -14.8128 121.177 -9.06224 121.177 -1.4801C121.177 4.09852 117.398 8.96838 111.993 10.353L59.6658 23.7608C54.5232 25.0785 50.9266 29.7127 50.9266 35.0215C50.9266 42.6121 58.0833 48.1663 65.4364 46.2822L86.0517 41C103.852 36.4391 121.177 49.8845 121.177 68.2598V97.2499C121.177 123.483 99.9104 144.75 73.6768 144.75H39.9988C32.3651 144.75 26.1767 138.562 26.1767 130.928C26.1767 124.875 30.1154 119.526 35.8957 117.729L84.5554 102.602C89.5343 101.055 92.9269 96.4473 92.9269 91.2334C92.9269 83.4926 85.6562 77.8102 78.1448 79.6804Z" fill="url(#paint3_linear_1_9)"/>
</g>
<defs>
<linearGradient id="paint0_linear_1_9" x1="28.5" y1="55" x2="28.5" y2="135" gradientUnits="userSpaceOnUse">
<stop stop-color="#F3F3F3"/>
<stop offset="1" stop-color="#F6EBDC"/>
</linearGradient>
<linearGradient id="paint1_linear_1_9" x1="73.6766" y1="-2.5" x2="73.6766" y2="131.75" gradientUnits="userSpaceOnUse">
<stop stop-color="#0062EB"/>
<stop offset="1" stop-color="#00253E"/>
</linearGradient>
<linearGradient id="paint2_linear_1_9" x1="137" y1="48" x2="46" y2="127" gradientUnits="userSpaceOnUse">
<stop stop-color="#EB7676"/>
<stop offset="1" stop-color="#B94949"/>
</linearGradient>
<linearGradient id="paint3_linear_1_9" x1="73.6766" y1="-2.5" x2="73.6766" y2="131.75" gradientUnits="userSpaceOnUse">
<stop stop-color="#0062EB"/>
<stop offset="1" stop-color="#00253E"/>
</linearGradient>
</defs>
</svg>
