<svg width="512" height="512" viewBox="0 0 512 512" fill="none" xmlns="http://www.w3.org/2000/svg">
<mask id="mask0_2_9" style="mask-type:alpha" maskUnits="userSpaceOnUse" x="0" y="0" width="512" height="512">
<rect width="512" height="512" rx="50" fill="black"/>
</mask>
<g mask="url(#mask0_2_9)">
<rect width="512" height="512" rx="50" fill="#7777B4"/>
<path fill-rule="evenodd" clip-rule="evenodd" d="M174 538C156.327 538 142 523.673 142 506V469.087C142 465.707 142.4 462.3 143.169 459.008C156.138 403.47 140.241 464 78 464H58C33.6995 464 14 444.301 14 420V368V316C14 291.699 33.6995 272 58 272H78H142H162C186.301 272 206 291.699 206 316V506C206 523.673 191.673 538 174 538V538ZM110 336C92.3269 336 78 350.327 78 368V368C78 385.673 92.3269 400 110 400V400C127.673 400 142 385.673 142 368V368C142 350.327 127.673 336 110 336V336Z" fill="url(#paint0_linear_2_9)"/>
<path d="M361.873 316.722L307.273 330.316C244.394 345.971 146.931 299.724 125.22 238.671C107.889 189.934 99.3075 128.765 128.067 53.7C141.603 18.3695 175.528 -3.73914 212.805 -10.2135L476.778 -56.0613C506.659 -61.2512 534.001 -38.249 534.001 -7.92039C534.001 14.3941 518.883 33.8735 497.267 39.4122L287.956 93.0432C267.386 98.3139 253 116.851 253 138.086C253 168.449 281.626 190.665 311.039 183.129L393.5 162C464.702 143.756 534.001 197.538 534.001 271.039V449C534.001 519.692 476.693 577 406.001 577H209.289C178.754 577 154 552.246 154 521.711C154 497.498 169.755 476.102 192.876 468.915L387.515 408.409C407.431 402.218 421.001 383.789 421.001 362.933C421.001 331.97 391.918 309.241 361.873 316.722Z" fill="url(#paint1_linear_2_9)"/>
<path d="M226 512V272C226 259.85 235.85 250 248 250H286.722C298.873 250 308.722 259.85 308.722 272V436.681C308.722 446.749 316.885 454.911 326.953 454.911C337.022 454.911 345.184 446.749 345.184 436.681V343.899C345.184 331.748 355.034 321.899 367.184 321.899H412.816C424.966 321.899 434.816 331.748 434.816 343.899V436.681C434.816 446.749 442.978 454.911 453.047 454.911C463.115 454.911 471.278 446.749 471.278 436.681V272C471.278 259.85 481.127 250 493.278 250H532C544.15 250 554 259.85 554 272V512C554 524.15 544.15 534 532 534H438.876C426.726 534 416.876 524.15 416.876 512V476.911C416.876 464.761 407.026 454.911 394.876 454.911H385.124C372.973 454.911 363.124 464.761 363.124 476.911V512C363.124 524.15 353.274 534 341.124 534H248C235.85 534 226 524.15 226 512Z" fill="url(#paint2_linear_2_9)"/>
</g>
<mask id="mask1_2_9" style="mask-type:alpha" maskUnits="userSpaceOnUse" x="216" y="238" width="106" height="122">
<rect x="216" y="238" width="106" height="122" fill="#D9D9D9"/>
</mask>
<g mask="url(#mask1_2_9)">
<path d="M361.873 316.722L307.273 330.316C244.394 345.971 146.931 299.724 125.22 238.671C107.889 189.934 99.3075 128.765 128.067 53.7C141.603 18.3695 175.528 -3.73914 212.805 -10.2135L476.778 -56.0613C506.659 -61.2512 534.001 -38.249 534.001 -7.92039C534.001 14.3941 518.883 33.8735 497.267 39.4122L287.956 93.0432C267.386 98.3139 253 116.851 253 138.086C253 168.449 281.626 190.665 311.039 183.129L393.5 162C464.702 143.756 534.001 197.538 534.001 271.039V449C534.001 519.692 476.693 577 406.001 577H209.289C178.754 577 154 552.246 154 521.711C154 497.498 169.755 476.102 192.876 468.915L387.515 408.409C407.431 402.218 421.001 383.789 421.001 362.933C421.001 331.97 391.918 309.241 361.873 316.722Z" fill="url(#paint3_linear_2_9)"/>
</g>
<defs>
<linearGradient id="paint0_linear_2_9" x1="110" y1="272" x2="110" y2="538" gradientUnits="userSpaceOnUse">
<stop stop-color="#F3F3F3"/>
<stop offset="1" stop-color="#F6EBDC"/>
</linearGradient>
<linearGradient id="paint1_linear_2_9" x1="344" y1="-12" x2="344" y2="525" gradientUnits="userSpaceOnUse">
<stop stop-color="#0062EB"/>
<stop offset="1" stop-color="#00253E"/>
</linearGradient>
<linearGradient id="paint2_linear_2_9" x1="554" y1="250" x2="226.741" y2="534.851" gradientUnits="userSpaceOnUse">
<stop stop-color="#EB7676"/>
<stop offset="1" stop-color="#B94949"/>
</linearGradient>
<linearGradient id="paint3_linear_2_9" x1="344" y1="-12" x2="344" y2="525" gradientUnits="userSpaceOnUse">
<stop stop-color="#0062EB"/>
<stop offset="1" stop-color="#00253E"/>
</linearGradient>
</defs>
</svg>
