<svg width="512" height="512" viewBox="0 0 512 512" fill="none" xmlns="http://www.w3.org/2000/svg">
<mask id="mask0_2_9" style="mask-type:alpha" maskUnits="userSpaceOnUse" x="0" y="0" width="512" height="512">
<rect width="512" height="512" rx="50" fill="black"/>
</mask>
<g mask="url(#mask0_2_9)">
<rect width="512" height="512" rx="50" fill="#7777B4"/>
<path fill-rule="evenodd" clip-rule="evenodd" d="M174 538C156.327 538 142 523.673 142 506V469.087C142 465.707 142.4 462.3 143.169 459.008C156.138 403.47 140.241 464 78 464H58C33.6995 464 14 444.301 14 420V368V316C14 291.699 33.6995 272 58 272H78H142H162C186.301 272 206 291.699 206 316V506C206 523.673 191.673 538 174 538V538ZM110 336C92.3269 336 78 350.327 78 368V368C78 385.673 92.3269 400 110 400V400C127.673 400 142 385.673 142 368V368C142 350.327 127.673 336 110 336V336Z" fill="#EFEFEF"/>
<path d="M366.37 315.602L239.058 347.3C208.854 354.82 168.499 330.32 154.219 302.663C122.901 242.005 76.3859 149.327 144.13 17.9978C150.092 6.43924 161.4 -1.28533 174.214 -3.51089L482.471 -57.0502C509.38 -61.7237 534.001 -41.0101 534.001 -13.6992V-4.1474C534.001 15.9468 520.387 33.4881 500.922 38.4757L286.079 93.5244C266.613 98.5119 253 116.053 253 136.147V141.305C253 170.036 280.088 191.059 307.921 183.928L479.08 140.072C506.912 132.941 534.001 153.964 534.001 182.695V533C534.001 557.3 514.301 577 490.001 577H198C173.7 577 154 557.3 154 533V513.399C154 494.13 166.538 477.102 184.939 471.382L390.062 407.618C408.463 401.898 421.001 384.87 421.001 365.601V358.298C421.001 329.691 394.13 308.69 366.37 315.602Z" fill="url(#paint0_linear_2_9)"/>
<path d="M226 512V272C226 259.85 235.85 250 248 250H286.722C298.873 250 308.722 259.85 308.722 272V436.681C308.722 446.749 316.885 454.911 326.953 454.911C337.022 454.911 345.184 446.749 345.184 436.681V343.899C345.184 331.748 355.034 321.899 367.184 321.899H412.816C424.966 321.899 434.816 331.748 434.816 343.899V436.681C434.816 446.749 442.978 454.911 453.047 454.911C463.115 454.911 471.278 446.749 471.278 436.681V272C471.278 259.85 481.127 250 493.278 250H532C544.15 250 554 259.85 554 272V512C554 524.15 544.15 534 532 534H438.876C426.726 534 416.876 524.15 416.876 512V476.911C416.876 464.761 407.026 454.911 394.876 454.911H385.124C372.973 454.911 363.124 464.761 363.124 476.911V512C363.124 524.15 353.274 534 341.124 534H248C235.85 534 226 524.15 226 512Z" fill="url(#paint1_linear_2_9)"/>
</g>
<mask id="mask1_2_9" style="mask-type:alpha" maskUnits="userSpaceOnUse" x="216" y="238" width="106" height="122">
<rect x="216" y="238" width="106" height="122" fill="#D9D9D9"/>
</mask>
<g mask="url(#mask1_2_9)">
<path d="M366.37 315.602L239.058 347.3C208.854 354.82 168.499 330.32 154.219 302.663C122.901 242.005 76.3859 149.327 144.13 17.9978C150.092 6.43924 161.4 -1.28533 174.214 -3.51089L482.471 -57.0502C509.38 -61.7237 534.001 -41.0101 534.001 -13.6992V-4.1474C534.001 15.9468 520.387 33.4881 500.922 38.4757L286.079 93.5244C266.613 98.5119 253 116.053 253 136.147V141.305C253 170.036 280.088 191.059 307.921 183.928L479.08 140.072C506.912 132.941 534.001 153.964 534.001 182.695V533C534.001 557.3 514.301 577 490.001 577H198C173.7 577 154 557.3 154 533V513.399C154 494.13 166.538 477.102 184.939 471.382L390.062 407.618C408.463 401.898 421.001 384.87 421.001 365.601V358.298C421.001 329.691 394.13 308.69 366.37 315.602Z" fill="url(#paint2_linear_2_9)"/>
</g>
<defs>
<linearGradient id="paint0_linear_2_9" x1="344" y1="-12" x2="344" y2="525" gradientUnits="userSpaceOnUse">
<stop stop-color="#004DBA"/>
<stop offset="1" stop-color="#001A1F"/>
</linearGradient>
<linearGradient id="paint1_linear_2_9" x1="554" y1="250" x2="226.741" y2="534.851" gradientUnits="userSpaceOnUse">
<stop stop-color="#EB7676"/>
<stop offset="1" stop-color="#B94949"/>
</linearGradient>
<linearGradient id="paint2_linear_2_9" x1="344" y1="-12" x2="344" y2="525" gradientUnits="userSpaceOnUse">
<stop stop-color="#004DBA"/>
<stop offset="1" stop-color="#001A1F"/>
</linearGradient>
</defs>
</svg>
